<?xml version="1.0" encoding="UTF-8" standalone="no"?>
<!DOCTYPE svg PUBLIC "-//W3C//DTD SVG 1.1//EN" "http://www.w3.org/Graphics/SVG/1.1/DTD/svg11.dtd">
<svg width="100%" height="100%" viewBox="0 0 135 50" version="1.1" xmlns="http://www.w3.org/2000/svg" xmlns:xlink="http://www.w3.org/1999/xlink" xml:space="preserve" xmlns:serif="http://www.serif.com/" style="fill-rule:evenodd;clip-rule:evenodd;stroke-linejoin:round;stroke-miterlimit:2;">
    <rect id="Tavola-da-disegno1" serif:id="Tavola da disegno1" x="0" y="0" width="135" height="50" style="fill:none;"/>
    <g id="Tavola-da-disegno11" serif:id="Tavola da disegno1">
        <g id="shape-ext" serif:id="shape ext" transform="matrix(0.292772,1.15985e-33,-1.15985e-33,-0.292772,24.6324,27.3054)">
            <path d="M-3.317,28.771L-3.318,28.772L-3.315,28.788L-3.598,29.225C-11.108,40.533 -22.497,46.96 -35.676,47.335L-35.697,47.336L-36.135,47.336L-36.156,47.335C-49.407,46.957 -60.837,40.566 -68.341,29.341C-68.358,29.315 -68.639,28.89 -68.639,28.89C-74.489,19.85 -76.892,8.522 -74.916,-0.681L-74.913,-0.669C-74.883,-0.877 -74.839,-1.093 -74.781,-1.335C-74.25,-3.387 -73.454,-5.306 -72.436,-7.059C-72.435,-7.062 -72.434,-7.063 -72.432,-7.066C-72.026,-7.765 -71.585,-8.437 -71.11,-9.079C-71.109,-9.08 -71.108,-9.082 -71.107,-9.084C-70.873,-9.4 -70.63,-9.711 -70.381,-10.013C-70.372,-10.023 -70.362,-10.034 -70.354,-10.045C-69.854,-10.647 -69.325,-11.22 -68.767,-11.761C-68.757,-11.77 -68.748,-11.779 -68.738,-11.789C-68.465,-12.053 -68.185,-12.309 -67.898,-12.558C-67.877,-12.575 -67.856,-12.593 -67.836,-12.611C-67.259,-13.108 -66.655,-13.573 -66.028,-14.006C-66.008,-14.02 -65.989,-14.033 -65.969,-14.047C-65.663,-14.256 -65.352,-14.456 -65.034,-14.649C-65.001,-14.669 -64.969,-14.688 -64.936,-14.709C-64.291,-15.096 -63.624,-15.45 -62.938,-15.768C-62.909,-15.78 -62.882,-15.794 -62.853,-15.808C-62.519,-15.96 -62.18,-16.104 -61.836,-16.239C-61.793,-16.257 -61.75,-16.272 -61.707,-16.289C-61.356,-16.426 -61.002,-16.554 -60.643,-16.671C-60.151,-21.11 -58.26,-26.954 -51.968,-29.201C-46.978,-30.983 -41.934,-31.548 -38.525,-31.562C-38.518,-31.562 -37.327,-31.567 -37.327,-31.567C-37.303,-31.587 -36.23,-31.582 -36.23,-31.582L-35.174,-31.587C-35.152,-31.567 -33.962,-31.562 -33.962,-31.562C-30.55,-31.548 -25.523,-30.929 -20.514,-29.201C-14.586,-27.156 -12.697,-21.395 -12.155,-16.92C-11.808,-16.819 -11.466,-16.709 -11.129,-16.591C-11.076,-16.572 -11.025,-16.554 -10.974,-16.535C-10.668,-16.425 -10.366,-16.309 -10.069,-16.186C-10.043,-16.174 -10.015,-16.163 -9.988,-16.151C-9.664,-16.015 -9.345,-15.869 -9.031,-15.717C-8.993,-15.698 -8.956,-15.679 -8.918,-15.66C-8.636,-15.521 -8.358,-15.375 -8.085,-15.223C-8.047,-15.202 -8.009,-15.182 -7.971,-15.16C-7.668,-14.99 -7.37,-14.813 -7.079,-14.629C-7.062,-14.618 -7.045,-14.606 -7.027,-14.596C-6.756,-14.423 -6.49,-14.243 -6.229,-14.06C-6.187,-14.031 -6.147,-14.003 -6.106,-13.975C-5.554,-13.58 -5.023,-13.162 -4.515,-12.723L-4.4,-12.623C-3.896,-12.181 -3.413,-11.719 -2.954,-11.239C-2.921,-11.205 -2.889,-11.171 -2.856,-11.137C-2.397,-10.652 -1.963,-10.152 -1.552,-9.639C-1.527,-9.607 -1.503,-9.577 -1.479,-9.546C-1.287,-9.304 -1.101,-9.06 -0.92,-8.813C-0.906,-8.794 -0.893,-8.776 -0.879,-8.757C-0.685,-8.49 -0.496,-8.22 -0.314,-7.947C-0.3,-7.926 -0.287,-7.904 -0.272,-7.884C-0.105,-7.632 0.056,-7.378 0.212,-7.122C0.23,-7.092 0.25,-7.062 0.268,-7.031C0.436,-6.754 0.598,-6.476 0.753,-6.195C0.753,-6.194 0.753,-6.193 0.754,-6.193C1.629,-4.609 2.294,-2.987 2.735,-1.416L2.758,-1.337C2.766,-1.307 2.92,-0.67 2.92,-0.67L2.93,-0.626C4.88,8.689 2.544,19.679 -3.317,28.771" style="fill:none;fill-rule:nonzero;"/>
            <clipPath id="_clip1">
                <path d="M-3.317,28.771L-3.318,28.772L-3.315,28.788L-3.598,29.225C-11.108,40.533 -22.497,46.96 -35.676,47.335L-35.697,47.336L-36.135,47.336L-36.156,47.335C-49.407,46.957 -60.837,40.566 -68.341,29.341C-68.358,29.315 -68.639,28.89 -68.639,28.89C-74.489,19.85 -76.892,8.522 -74.916,-0.681L-74.913,-0.669C-74.883,-0.877 -74.839,-1.093 -74.781,-1.335C-74.25,-3.387 -73.454,-5.306 -72.436,-7.059C-72.435,-7.062 -72.434,-7.063 -72.432,-7.066C-72.026,-7.765 -71.585,-8.437 -71.11,-9.079C-71.109,-9.08 -71.108,-9.082 -71.107,-9.084C-70.873,-9.4 -70.63,-9.711 -70.381,-10.013C-70.372,-10.023 -70.362,-10.034 -70.354,-10.045C-69.854,-10.647 -69.325,-11.22 -68.767,-11.761C-68.757,-11.77 -68.748,-11.779 -68.738,-11.789C-68.465,-12.053 -68.185,-12.309 -67.898,-12.558C-67.877,-12.575 -67.856,-12.593 -67.836,-12.611C-67.259,-13.108 -66.655,-13.573 -66.028,-14.006C-66.008,-14.02 -65.989,-14.033 -65.969,-14.047C-65.663,-14.256 -65.352,-14.456 -65.034,-14.649C-65.001,-14.669 -64.969,-14.688 -64.936,-14.709C-64.291,-15.096 -63.624,-15.45 -62.938,-15.768C-62.909,-15.78 -62.882,-15.794 -62.853,-15.808C-62.519,-15.96 -62.18,-16.104 -61.836,-16.239C-61.793,-16.257 -61.75,-16.272 -61.707,-16.289C-61.356,-16.426 -61.002,-16.554 -60.643,-16.671C-60.151,-21.11 -58.26,-26.954 -51.968,-29.201C-46.978,-30.983 -41.934,-31.548 -38.525,-31.562C-38.518,-31.562 -37.327,-31.567 -37.327,-31.567C-37.303,-31.587 -36.23,-31.582 -36.23,-31.582L-35.174,-31.587C-35.152,-31.567 -33.962,-31.562 -33.962,-31.562C-30.55,-31.548 -25.523,-30.929 -20.514,-29.201C-14.586,-27.156 -12.697,-21.395 -12.155,-16.92C-11.808,-16.819 -11.466,-16.709 -11.129,-16.591C-11.076,-16.572 -11.025,-16.554 -10.974,-16.535C-10.668,-16.425 -10.366,-16.309 -10.069,-16.186C-10.043,-16.174 -10.015,-16.163 -9.988,-16.151C-9.664,-16.015 -9.345,-15.869 -9.031,-15.717C-8.993,-15.698 -8.956,-15.679 -8.918,-15.66C-8.636,-15.521 -8.358,-15.375 -8.085,-15.223C-8.047,-15.202 -8.009,-15.182 -7.971,-15.16C-7.668,-14.99 -7.37,-14.813 -7.079,-14.629C-7.062,-14.618 -7.045,-14.606 -7.027,-14.596C-6.756,-14.423 -6.49,-14.243 -6.229,-14.06C-6.187,-14.031 -6.147,-14.003 -6.106,-13.975C-5.554,-13.58 -5.023,-13.162 -4.515,-12.723L-4.4,-12.623C-3.896,-12.181 -3.413,-11.719 -2.954,-11.239C-2.921,-11.205 -2.889,-11.171 -2.856,-11.137C-2.397,-10.652 -1.963,-10.152 -1.552,-9.639C-1.527,-9.607 -1.503,-9.577 -1.479,-9.546C-1.287,-9.304 -1.101,-9.06 -0.92,-8.813C-0.906,-8.794 -0.893,-8.776 -0.879,-8.757C-0.685,-8.49 -0.496,-8.22 -0.314,-7.947C-0.3,-7.926 -0.287,-7.904 -0.272,-7.884C-0.105,-7.632 0.056,-7.378 0.212,-7.122C0.23,-7.092 0.25,-7.062 0.268,-7.031C0.436,-6.754 0.598,-6.476 0.753,-6.195C0.753,-6.194 0.753,-6.193 0.754,-6.193C1.629,-4.609 2.294,-2.987 2.735,-1.416L2.758,-1.337C2.766,-1.307 2.92,-0.67 2.92,-0.67L2.93,-0.626C4.88,8.689 2.544,19.679 -3.317,28.771" clip-rule="nonzero"/>
            </clipPath>
            <g clip-path="url(#_clip1)">
                <g transform="matrix(0.25,0,0,0.25,-85.3229,-192.186)">
                    <g id="path1612" transform="matrix(4,0,0,4,185.124,952.203)">
                        <path d="M0,0L-7.19,-1.498L-14.23,-4.494L-21.496,-9.437L-26.364,-14.155L-30.259,-19.998L-32.955,-26.439L-34.903,-32.806L-34.679,-40.67L-34.379,-46.512L-31.532,-53.327L-26.589,-58.57L-21.271,-61.566L3.37,-62.315L26.364,-61.417L35.053,-56.398L39.921,-47.636L41.119,-36.7L37.674,-23.368L31.981,-14.155L25.241,-7.564L14.081,-1.647L6.217,0.225L0,0Z" style="fill:rgb(255,223,0);fill-rule:nonzero;"/>
                    </g>
                    <g transform="matrix(0.75,0,0,-0.75,35.3738,962.915)">
                        <path d="M101.495,299.308C95.658,296.054 88.527,289.903 82.063,282.229C76.71,275.873 71.998,268.319 69.127,260.22C60.905,237.616 66.153,207.088 80.004,180.151C92.422,156.001 112.194,134.353 139.371,125.085C161.153,117.424 180.311,119.227 197.996,126.424C247.35,146.511 287.153,199.799 338.737,215.433C371.45,225.911 392.369,215.651 404.261,197.852C409.589,189.879 413.357,179.886 414.38,168.617C416.075,149.923 411.144,127.84 401.794,107.727C399.366,101.351 392.219,98.146 385.843,100.574C379.467,103.001 376.262,110.149 378.69,116.524C382.872,130.59 383.782,145.239 382.85,158.211C382.243,166.664 380.75,174.307 377.022,180.062C371.859,188.033 362.213,190.238 347.54,186.122C296.851,171.039 257.571,119.17 209.373,98.916C185.295,88.799 159.33,85.357 129.257,95.009C93.784,106.769 66.545,133.812 50.932,165.521C33.495,200.936 30.673,241.538 42.655,270.504C47.297,281.468 54.334,291.601 62.267,299.946C71.637,309.803 81.952,317.33 90.115,321.255C96.172,324.395 103.638,322.028 106.779,315.971C109.919,309.915 107.552,302.448 101.495,299.308Z" style="fill:rgb(24,18,16);"/>
                    </g>
                    <g transform="matrix(0.75,1.36846e-48,-1.36846e-48,-0.75,35.3738,962.915)">
                        <path d="M97.431,307.146C90.783,303.625 82.456,297.037 74.996,288.554C68.757,281.461 63.137,273.025 59.679,263.89C50.186,238.999 54.474,204.86 69.626,174.928C83.212,148.091 105.622,124.512 135.755,114.332C160.482,105.907 182.092,108.359 202.065,116.585C251.007,136.741 290.608,189.544 341.871,204.996C367.148,212.729 383.396,207.078 392.731,195.136C396.612,190.17 399.358,184.027 400.892,177.066C401.77,173.078 402.246,168.817 402.363,164.381C402.737,150.162 399.448,134.073 393.557,119.039C392.886,117.209 390.856,116.268 389.026,116.939C387.196,117.61 386.255,119.641 386.926,121.471C391.787,135.69 394.165,150.766 393.333,163.978C393.09,167.836 392.548,171.524 391.738,174.988C390.447,180.51 388.426,185.447 385.365,189.419C377.94,199.054 364.754,202.555 344.405,196.558C293.396,181.296 253.913,128.945 205.303,108.756C183.507,99.703 159.963,96.774 132.873,105.762C100.368,116.641 75.814,141.751 61.31,170.744C45.125,203.098 41.535,240.121 52.103,266.833C56.07,276.788 62.357,285.959 69.335,293.621C77.627,302.726 86.865,309.705 94.18,313.417C95.91,314.314 98.043,313.637 98.941,311.907C99.838,310.177 99.161,308.043 97.431,307.146Z" style="fill:white;"/>
                    </g>
                    <g id="path1616" transform="matrix(4,0,0,4,182.128,758.664)">
                        <path d="M0,0L5.992,0L15.204,-2.021L22.919,-5.018L26.064,-7.938L26.964,-11.159L26.215,-16.028L23.968,-21.945L18.575,-25.54L9.512,-27.637L-0.3,-27.187L-9.812,-25.689L-16.553,-21.72L-19.249,-15.279L-20.073,-10.036L-18.725,-7.115L-11.235,-2.621L-5.318,-0.898L0,0Z" style="fill:rgb(252,215,168);fill-rule:nonzero;"/>
                    </g>
                    <g id="path1620" transform="matrix(4,3.28429e-47,3.28429e-47,4,161.155,734.996)">
                        <path d="M0,0L-0.674,-1.572L-0.711,-3.146L-0.3,-4.644L0.637,-5.43L1.723,-4.942L2.396,-3.932L2.322,-1.723L2.022,-0.262L1.461,0.524L0.375,0.3L0,0Z" style="fill:white;fill-rule:nonzero;"/>
                    </g>
                    <g id="path1624" transform="matrix(4,3.28429e-47,3.28429e-47,4,226.616,734.848)">
                        <path d="M0,0L-0.449,-1.123L-0.486,-2.396L-0.337,-3.67L0.225,-4.831L1.723,-4.868L2.696,-3.782L2.472,-1.872L2.172,-0.262L1.461,0.337L0.562,0.562L0,0Z" style="fill:white;fill-rule:nonzero;"/>
                    </g>
                    <g id="path1640" transform="matrix(4,3.28429e-47,3.28429e-47,4,341.292,768.742)">
                        <path d="M0,0C-0.014,-0.057 -0.126,-0.521 -0.134,-0.552C-0.141,-0.575 -0.148,-0.605 -0.148,-0.605C-0.47,-1.748 -0.941,-2.938 -1.552,-4.124L-1.553,-4.123C-3.59,-8.074 -7.182,-11.953 -11.955,-13.7C-11.956,-13.701 -11.957,-13.701 -11.957,-13.702C-11.951,-12.167 -12.069,-11.157 -12.073,-11.123L-12.101,-10.833L-12.276,-10.59C-16.64,-4.973 -25.549,-1.354 -36.174,-1.327C-46.926,-1.354 -56.237,-4.897 -60.444,-10.598L-60.62,-10.84L-60.646,-11.13C-60.649,-11.163 -60.771,-12.052 -60.794,-13.428C-61.676,-13.075 -62.524,-12.655 -63.333,-12.174C-63.336,-12.172 -63.339,-12.171 -63.341,-12.169C-63.879,-11.848 -64.399,-11.5 -64.901,-11.125L-64.901,-11.124C-65.653,-10.563 -66.361,-9.942 -67.021,-9.271L-67.032,-9.259C-67.469,-8.813 -67.884,-8.343 -68.276,-7.853C-68.278,-7.85 -68.281,-7.846 -68.283,-7.843C-68.872,-7.104 -69.408,-6.317 -69.886,-5.487C-69.891,-5.479 -69.896,-5.471 -69.899,-5.463C-70.214,-4.915 -70.504,-4.348 -70.767,-3.764C-70.77,-3.755 -70.774,-3.746 -70.777,-3.737C-70.909,-3.443 -71.034,-3.146 -71.151,-2.844C-71.433,-2.122 -71.676,-1.377 -71.874,-0.61C-71.874,-0.607 -71.968,-0.186 -71.968,-0.186L-71.986,-0.052C-72.402,1.887 -72.605,3.93 -72.605,6.03C-72.605,13.091 -70.313,20.787 -66.131,27.251C-65.981,27.478 -65.899,27.602 -65.841,27.695L-65.851,27.676C-58.903,38.069 -48.331,43.987 -36.082,44.34L-35.75,44.34C-23.577,43.99 -13.049,38.039 -6.104,27.582C-6.104,27.581 -5.83,27.16 -5.83,27.16L-5.835,27.147C-1.645,20.646 0.612,13.134 0.612,6.114C0.612,4.02 0.411,1.968 0,0M-21.29,-26.304C-25.921,-28.115 -30.743,-28.509 -33.969,-28.525L-35.174,-28.527C-35.174,-28.547 -36.225,-28.54 -36.23,-28.54C-36.255,-28.54 -37.303,-28.547 -37.303,-28.547C-37.308,-28.527 -38.518,-28.525 -38.518,-28.525C-41.739,-28.509 -46.562,-28.115 -51.191,-26.304C-58.186,-23.576 -58.482,-15.297 -58.482,-12.401C-58.482,-11.988 -58.474,-11.891 -58.461,-11.72C-54.488,-7.119 -46.145,-4.302 -36.298,-4.277C-26.335,-4.302 -18.187,-7.568 -14.209,-11.78C-14.202,-11.951 -14.192,-12.049 -14.192,-12.462C-14.192,-15.358 -14.29,-23.576 -21.29,-26.304M-3.317,28.771L-3.318,28.772L-3.315,28.788L-3.598,29.225C-11.108,40.533 -22.497,46.96 -35.676,47.335L-35.697,47.336L-36.135,47.336L-36.156,47.335C-49.407,46.957 -60.837,40.566 -68.341,29.341C-68.358,29.315 -68.639,28.89 -68.639,28.89C-74.489,19.85 -76.892,8.522 -74.916,-0.681L-74.913,-0.669C-74.883,-0.877 -74.839,-1.093 -74.781,-1.335C-74.25,-3.387 -73.454,-5.306 -72.436,-7.059C-72.435,-7.062 -72.434,-7.063 -72.432,-7.066C-72.026,-7.765 -71.585,-8.437 -71.11,-9.079C-71.109,-9.08 -71.108,-9.082 -71.107,-9.084C-70.873,-9.4 -70.63,-9.711 -70.381,-10.013C-70.372,-10.023 -70.362,-10.034 -70.354,-10.045C-69.854,-10.647 -69.325,-11.22 -68.767,-11.761C-68.757,-11.77 -68.748,-11.779 -68.738,-11.789C-68.465,-12.053 -68.185,-12.309 -67.898,-12.558C-67.877,-12.575 -67.856,-12.593 -67.836,-12.611C-67.259,-13.108 -66.655,-13.573 -66.028,-14.006C-66.008,-14.02 -65.989,-14.033 -65.969,-14.047C-65.663,-14.256 -65.352,-14.456 -65.034,-14.649C-65.001,-14.669 -64.969,-14.688 -64.936,-14.709C-64.291,-15.096 -63.624,-15.45 -62.938,-15.768C-62.909,-15.78 -62.882,-15.794 -62.853,-15.808C-62.519,-15.96 -62.18,-16.104 -61.836,-16.239C-61.793,-16.257 -61.75,-16.272 -61.707,-16.289C-61.356,-16.426 -61.002,-16.554 -60.643,-16.671C-60.151,-21.11 -58.26,-26.954 -51.968,-29.201C-46.978,-30.983 -41.934,-31.548 -38.525,-31.562C-38.518,-31.562 -37.327,-31.567 -37.327,-31.567C-37.303,-31.587 -36.23,-31.582 -36.23,-31.582L-35.174,-31.587C-35.152,-31.567 -33.962,-31.562 -33.962,-31.562C-30.55,-31.548 -25.523,-30.929 -20.514,-29.201C-14.586,-27.156 -12.697,-21.395 -12.155,-16.92C-11.808,-16.819 -11.466,-16.709 -11.129,-16.591C-11.076,-16.572 -11.025,-16.554 -10.974,-16.535C-10.668,-16.425 -10.366,-16.309 -10.069,-16.186C-10.043,-16.174 -10.015,-16.163 -9.988,-16.151C-9.664,-16.015 -9.345,-15.869 -9.031,-15.717C-8.993,-15.698 -8.956,-15.679 -8.918,-15.66C-8.636,-15.521 -8.358,-15.375 -8.085,-15.223C-8.047,-15.202 -8.009,-15.182 -7.971,-15.16C-7.668,-14.99 -7.37,-14.813 -7.079,-14.629C-7.062,-14.618 -7.045,-14.606 -7.027,-14.596C-6.756,-14.423 -6.49,-14.243 -6.229,-14.06C-6.187,-14.031 -6.147,-14.003 -6.106,-13.975C-5.554,-13.58 -5.023,-13.162 -4.515,-12.723L-4.4,-12.623C-3.896,-12.181 -3.413,-11.719 -2.954,-11.239C-2.921,-11.205 -2.889,-11.171 -2.856,-11.137C-2.397,-10.652 -1.963,-10.152 -1.552,-9.639C-1.527,-9.607 -1.503,-9.577 -1.479,-9.546C-1.287,-9.304 -1.101,-9.06 -0.92,-8.813C-0.906,-8.794 -0.893,-8.776 -0.879,-8.757C-0.685,-8.49 -0.496,-8.22 -0.314,-7.947C-0.3,-7.926 -0.287,-7.904 -0.272,-7.884C-0.105,-7.632 0.056,-7.378 0.212,-7.122C0.23,-7.092 0.25,-7.062 0.268,-7.031C0.436,-6.754 0.598,-6.476 0.753,-6.195C0.753,-6.194 0.753,-6.193 0.754,-6.193C1.629,-4.609 2.294,-2.987 2.735,-1.416L2.758,-1.337C2.766,-1.307 2.92,-0.67 2.92,-0.67L2.93,-0.626C4.88,8.689 2.544,19.679 -3.317,28.771M-26.888,-12.11C-27.071,-12.584 -27.354,-12.759 -27.667,-12.76C-27.981,-12.761 -28.259,-12.585 -28.445,-12.107C-28.591,-11.737 -28.683,-11.136 -28.685,-10.618C-28.687,-10.088 -28.609,-9.497 -28.461,-9.122C-28.276,-8.66 -27.989,-8.471 -27.682,-8.47C-27.37,-8.469 -27.074,-8.699 -26.888,-9.167C-26.739,-9.539 -26.665,-10.087 -26.664,-10.612C-26.662,-11.133 -26.743,-11.738 -26.888,-12.11M-27.624,-7.594C-29.611,-7.41 -29.608,-10.586 -29.608,-14.25C-29.608,-17.913 -29.313,-20.9 -27.569,-20.882C-25.74,-20.861 -25.505,-17.771 -25.505,-14.11C-25.505,-10.447 -25.897,-7.752 -27.624,-7.594M-43.396,-12.107C-43.582,-12.585 -43.859,-12.761 -44.174,-12.76C-44.486,-12.759 -44.77,-12.584 -44.953,-12.11C-45.098,-11.738 -45.179,-11.133 -45.177,-10.612C-45.176,-10.087 -45.102,-9.539 -44.953,-9.167C-44.767,-8.699 -44.471,-8.469 -44.159,-8.47C-43.852,-8.471 -43.564,-8.66 -43.38,-9.122C-43.23,-9.497 -43.154,-10.088 -43.156,-10.618C-43.158,-11.136 -43.25,-11.737 -43.396,-12.107M-44.217,-7.594C-45.943,-7.752 -46.336,-10.447 -46.336,-14.11C-46.336,-17.771 -46.101,-20.861 -44.271,-20.882C-42.527,-20.9 -42.232,-17.913 -42.232,-14.25C-42.232,-10.586 -42.229,-7.41 -44.217,-7.594" style="fill:rgb(24,18,16);fill-rule:nonzero;"/>
                    </g>
                </g>
            </g>
        </g>
        <g transform="matrix(0.29228,0,0,0.29228,-35.3813,-66.4578)">
            <g transform="matrix(90,0,0,90,229.956,338.967)">
                <path d="M0.214,-0.282L0.209,-0.42L0.318,-0.39L0.297,-0.292L0.214,-0.282ZM0.012,-0.523L0.049,-0.029L0.214,-0.036L0.215,-0.178L0.351,-0.17L0.453,-0.246L0.495,-0.432L0.311,-0.564L0.012,-0.523Z" style="fill:white;fill-rule:nonzero;"/>
            </g>
            <g transform="matrix(90,0,0,90,274.146,338.967)">
                <path d="M0.224,-0.245L0.25,-0.347L0.273,-0.347L0.301,-0.235L0.224,-0.245ZM0.016,-0.054L0.18,-0.018L0.2,-0.116L0.321,-0.124L0.34,-0.017L0.518,-0.036L0.39,-0.462L0.146,-0.492L0.016,-0.054Z" style="fill:white;fill-rule:nonzero;"/>
            </g>
            <g transform="matrix(90,0,0,90,322.656,338.967)">
                <path d="M0.247,-0.152L0.227,-0.373L0.364,-0.324L0.34,-0.185L0.247,-0.152ZM0.021,-0.491L0.093,-0.015L0.394,-0.033L0.521,-0.171L0.539,-0.41L0.286,-0.552L0.021,-0.491Z" style="fill:white;fill-rule:nonzero;"/>
            </g>
            <g transform="matrix(90,0,0,90,373.236,338.967)">
                <path d="M0.086,-0.492L0.021,-0.218L0.073,-0.037L0.428,-0.021L0.411,-0.158L0.225,-0.147L0.219,-0.197L0.351,-0.179L0.374,-0.288L0.228,-0.304L0.24,-0.351L0.429,-0.301L0.457,-0.445L0.086,-0.492Z" style="fill:white;fill-rule:nonzero;"/>
            </g>
            <g transform="matrix(90,0,0,90,414.546,338.967)">
                <path d="M0.011,-0.504L0.083,-0.016L0.444,-0.049L0.451,-0.258L0.224,-0.191L0.219,-0.531L0.011,-0.504Z" style="fill:white;fill-rule:nonzero;"/>
            </g>
            <g transform="matrix(90,0,0,90,481.506,338.967)">
                <path d="M0.041,-0.495L0.022,-0.128L0.132,-0.036L0.398,-0.035L0.491,-0.137L0.535,-0.393L0.341,-0.422L0.328,-0.189L0.222,-0.173L0.257,-0.469L0.041,-0.495Z" style="fill:white;fill-rule:nonzero;"/>
            </g>
            <g transform="matrix(90,0,0,90,529.836,338.967)">
                <path d="M0.214,-0.282L0.209,-0.42L0.318,-0.39L0.297,-0.292L0.214,-0.282ZM0.012,-0.523L0.049,-0.029L0.214,-0.036L0.215,-0.178L0.351,-0.17L0.453,-0.246L0.495,-0.432L0.311,-0.564L0.012,-0.523Z" style="fill:white;fill-rule:nonzero;"/>
            </g>
            <path d="M254.21,328.185L254.124,340.464L229.796,341.496L225.762,287.633L259.226,283.044L280.047,297.981L275.143,319.697L263.054,328.705L254.21,328.185ZM231.036,291.897L234.366,336.357L249.216,335.727L249.306,322.947L261.546,323.667L270.726,316.827L274.506,300.087L257.946,288.207L231.036,291.897ZM249.216,313.587L248.766,301.167L258.576,303.867L256.686,312.687L249.216,313.587Z"/>
            <path d="M296.233,333.208L294.184,343.248L269.338,337.794L283.739,289.273L313.05,292.876L327.211,340.008L300.687,342.839L298.945,333.029L296.233,333.208ZM275.586,334.107L290.346,337.347L292.146,328.527L303.036,327.807L304.746,337.437L320.766,335.727L309.246,297.387L287.286,294.687L275.586,334.107ZM294.306,316.917L296.646,307.737L298.716,307.737L301.236,317.817L294.306,316.917Z"/>
            <path d="M318.976,290.989L326.816,342.819L360.401,340.81L374.344,325.66L376.329,299.299L349.149,284.043L318.976,290.989ZM324.546,294.777L331.026,337.617L358.116,335.997L369.546,323.577L371.166,302.067L348.396,289.287L324.546,294.777ZM344.886,325.287L343.086,305.397L355.416,309.807L353.256,322.317L344.886,325.287ZM349.119,317.238L349.84,313.06L348.704,312.654L349.119,317.238Z"/>
            <path d="M415.608,294.094L417.648,307.923L415.688,318.004L411.153,316.805L410.525,319.78L414.559,319.541L417.38,342.276L376.037,340.413L370.019,319.467L377.193,289.227L415.608,294.094ZM380.976,294.687L375.126,319.347L379.806,335.637L411.756,337.077L410.226,324.747L393.486,325.737L392.946,321.237L404.826,322.857L406.896,313.047L393.756,311.607L394.836,307.377L411.846,311.877L414.366,298.917L380.976,294.687Z"/>
            <path d="M411.267,298.524L409.914,289.354L439.115,285.564L439.551,315.195L460.303,309.07L459.298,339.08L417.81,342.873L412.637,307.809L414.366,298.917L411.267,298.524ZM415.536,293.607L422.016,337.527L454.506,334.557L455.136,315.747L434.706,321.777L434.256,291.177L415.536,293.607Z"/>
            <path d="M532.665,315.256L530.321,328.898L519.5,340.766L491.584,340.661L478.424,329.655L480.535,288.879L510.122,292.441L509.745,295.625L531.438,298.867L532.665,315.256ZM485.196,294.417L483.486,327.447L493.386,335.727L517.326,335.817L525.696,326.637L529.656,303.597L512.196,300.987L511.026,321.957L501.486,323.397L504.636,296.757L485.196,294.417Z"/>
            <path d="M526.805,303.171L525.642,287.633L559.106,283.044L579.927,297.981L575.023,319.697L562.934,328.705L554.09,328.185L554.004,340.464L529.676,341.496L527.693,315.018L529.656,303.597L526.805,303.171ZM530.916,291.897L534.246,336.357L549.096,335.727L549.186,322.947L561.426,323.667L570.606,316.827L574.386,300.087L557.826,288.207L530.916,291.897ZM549.096,313.587L548.646,301.167L558.456,303.867L556.566,312.687L549.096,313.587Z"/>
        </g>
    </g>
</svg>
