<?xml version="1.0" encoding="UTF-8" standalone="no"?>
<!DOCTYPE svg PUBLIC "-//W3C//DTD SVG 1.1//EN" "http://www.w3.org/Graphics/SVG/1.1/DTD/svg11.dtd">
<svg width="100%" height="100%" viewBox="0 0 720 720" version="1.1" xmlns="http://www.w3.org/2000/svg" xmlns:xlink="http://www.w3.org/1999/xlink" xml:space="preserve" xmlns:serif="http://www.serif.com/" style="fill-rule:evenodd;clip-rule:evenodd;stroke-linejoin:round;stroke-miterlimit:2;">
    <g transform="matrix(1,0,0,1,0,-1281)">
        <g id="symbol-yellow" transform="matrix(1,0,0,1,820,0)">
            <rect x="-820" y="1281" width="720" height="720" style="fill:none;"/>
            <clipPath id="_clip1">
                <rect x="-820" y="1281" width="720" height="720"/>
            </clipPath>
            <g clip-path="url(#_clip1)">
                <g id="shape-ext" serif:id="shape ext" transform="matrix(9.09085,-3.91433e-18,3.91433e-18,-9.12282,-132.769,1712.84)">
                    <path d="M-3.317,28.771L-3.318,28.772L-3.315,28.788L-3.598,29.225C-11.108,40.533 -22.497,46.96 -35.676,47.335L-35.697,47.336L-36.135,47.336L-36.156,47.335C-49.407,46.957 -60.837,40.566 -68.341,29.341C-68.358,29.315 -68.639,28.89 -68.639,28.89C-74.489,19.85 -76.892,8.522 -74.916,-0.681L-74.913,-0.669C-74.883,-0.877 -74.839,-1.093 -74.781,-1.335C-74.25,-3.387 -73.454,-5.306 -72.436,-7.059C-72.435,-7.062 -72.434,-7.063 -72.432,-7.066C-72.026,-7.765 -71.585,-8.437 -71.11,-9.079C-71.109,-9.08 -71.108,-9.082 -71.107,-9.084C-70.873,-9.4 -70.63,-9.711 -70.381,-10.013C-70.372,-10.023 -70.362,-10.034 -70.354,-10.045C-69.854,-10.647 -69.325,-11.22 -68.767,-11.761C-68.757,-11.77 -68.748,-11.779 -68.738,-11.789C-68.465,-12.053 -68.185,-12.309 -67.898,-12.558C-67.877,-12.575 -67.856,-12.593 -67.836,-12.611C-67.259,-13.108 -66.655,-13.573 -66.028,-14.006C-66.008,-14.02 -65.989,-14.033 -65.969,-14.047C-65.663,-14.256 -65.352,-14.456 -65.034,-14.649C-65.001,-14.669 -64.969,-14.688 -64.936,-14.709C-64.291,-15.096 -63.624,-15.45 -62.938,-15.768C-62.909,-15.78 -62.882,-15.794 -62.853,-15.808C-62.519,-15.96 -62.18,-16.104 -61.836,-16.239C-61.793,-16.257 -61.75,-16.272 -61.707,-16.289C-61.356,-16.426 -61.002,-16.554 -60.643,-16.671C-60.151,-21.11 -58.26,-26.954 -51.968,-29.201C-46.978,-30.983 -41.934,-31.548 -38.525,-31.562C-38.518,-31.562 -37.327,-31.567 -37.327,-31.567C-37.303,-31.587 -36.23,-31.582 -36.23,-31.582L-35.174,-31.587C-35.152,-31.567 -33.962,-31.562 -33.962,-31.562C-30.55,-31.548 -25.523,-30.929 -20.514,-29.201C-14.586,-27.156 -12.697,-21.395 -12.155,-16.92C-11.808,-16.819 -11.466,-16.709 -11.129,-16.591C-11.076,-16.572 -11.025,-16.554 -10.974,-16.535C-10.668,-16.425 -10.366,-16.309 -10.069,-16.186C-10.043,-16.174 -10.015,-16.163 -9.988,-16.151C-9.664,-16.015 -9.345,-15.869 -9.031,-15.717C-8.993,-15.698 -8.956,-15.679 -8.918,-15.66C-8.636,-15.521 -8.358,-15.375 -8.085,-15.223C-8.047,-15.202 -8.009,-15.182 -7.971,-15.16C-7.668,-14.99 -7.37,-14.813 -7.079,-14.629C-7.062,-14.618 -7.045,-14.606 -7.027,-14.596C-6.756,-14.423 -6.49,-14.243 -6.229,-14.06C-6.187,-14.031 -6.147,-14.003 -6.106,-13.975C-5.554,-13.58 -5.023,-13.162 -4.515,-12.723L-4.4,-12.623C-3.896,-12.181 -3.413,-11.719 -2.954,-11.239C-2.921,-11.205 -2.889,-11.171 -2.856,-11.137C-2.397,-10.652 -1.963,-10.152 -1.552,-9.639C-1.527,-9.607 -1.503,-9.577 -1.479,-9.546C-1.287,-9.304 -1.101,-9.06 -0.92,-8.813C-0.906,-8.794 -0.893,-8.776 -0.879,-8.757C-0.685,-8.49 -0.496,-8.22 -0.314,-7.947C-0.3,-7.926 -0.287,-7.904 -0.272,-7.884C-0.105,-7.632 0.056,-7.378 0.212,-7.122C0.23,-7.092 0.25,-7.062 0.268,-7.031C0.436,-6.754 0.598,-6.476 0.753,-6.195C0.753,-6.194 0.753,-6.193 0.754,-6.193C1.629,-4.609 2.294,-2.987 2.735,-1.416L2.758,-1.337C2.766,-1.307 2.92,-0.67 2.92,-0.67L2.93,-0.626C4.88,8.689 2.544,19.679 -3.317,28.771" style="fill:none;fill-rule:nonzero;"/>
                    <clipPath id="_clip2">
                        <path d="M-3.317,28.771L-3.318,28.772L-3.315,28.788L-3.598,29.225C-11.108,40.533 -22.497,46.96 -35.676,47.335L-35.697,47.336L-36.135,47.336L-36.156,47.335C-49.407,46.957 -60.837,40.566 -68.341,29.341C-68.358,29.315 -68.639,28.89 -68.639,28.89C-74.489,19.85 -76.892,8.522 -74.916,-0.681L-74.913,-0.669C-74.883,-0.877 -74.839,-1.093 -74.781,-1.335C-74.25,-3.387 -73.454,-5.306 -72.436,-7.059C-72.435,-7.062 -72.434,-7.063 -72.432,-7.066C-72.026,-7.765 -71.585,-8.437 -71.11,-9.079C-71.109,-9.08 -71.108,-9.082 -71.107,-9.084C-70.873,-9.4 -70.63,-9.711 -70.381,-10.013C-70.372,-10.023 -70.362,-10.034 -70.354,-10.045C-69.854,-10.647 -69.325,-11.22 -68.767,-11.761C-68.757,-11.77 -68.748,-11.779 -68.738,-11.789C-68.465,-12.053 -68.185,-12.309 -67.898,-12.558C-67.877,-12.575 -67.856,-12.593 -67.836,-12.611C-67.259,-13.108 -66.655,-13.573 -66.028,-14.006C-66.008,-14.02 -65.989,-14.033 -65.969,-14.047C-65.663,-14.256 -65.352,-14.456 -65.034,-14.649C-65.001,-14.669 -64.969,-14.688 -64.936,-14.709C-64.291,-15.096 -63.624,-15.45 -62.938,-15.768C-62.909,-15.78 -62.882,-15.794 -62.853,-15.808C-62.519,-15.96 -62.18,-16.104 -61.836,-16.239C-61.793,-16.257 -61.75,-16.272 -61.707,-16.289C-61.356,-16.426 -61.002,-16.554 -60.643,-16.671C-60.151,-21.11 -58.26,-26.954 -51.968,-29.201C-46.978,-30.983 -41.934,-31.548 -38.525,-31.562C-38.518,-31.562 -37.327,-31.567 -37.327,-31.567C-37.303,-31.587 -36.23,-31.582 -36.23,-31.582L-35.174,-31.587C-35.152,-31.567 -33.962,-31.562 -33.962,-31.562C-30.55,-31.548 -25.523,-30.929 -20.514,-29.201C-14.586,-27.156 -12.697,-21.395 -12.155,-16.92C-11.808,-16.819 -11.466,-16.709 -11.129,-16.591C-11.076,-16.572 -11.025,-16.554 -10.974,-16.535C-10.668,-16.425 -10.366,-16.309 -10.069,-16.186C-10.043,-16.174 -10.015,-16.163 -9.988,-16.151C-9.664,-16.015 -9.345,-15.869 -9.031,-15.717C-8.993,-15.698 -8.956,-15.679 -8.918,-15.66C-8.636,-15.521 -8.358,-15.375 -8.085,-15.223C-8.047,-15.202 -8.009,-15.182 -7.971,-15.16C-7.668,-14.99 -7.37,-14.813 -7.079,-14.629C-7.062,-14.618 -7.045,-14.606 -7.027,-14.596C-6.756,-14.423 -6.49,-14.243 -6.229,-14.06C-6.187,-14.031 -6.147,-14.003 -6.106,-13.975C-5.554,-13.58 -5.023,-13.162 -4.515,-12.723L-4.4,-12.623C-3.896,-12.181 -3.413,-11.719 -2.954,-11.239C-2.921,-11.205 -2.889,-11.171 -2.856,-11.137C-2.397,-10.652 -1.963,-10.152 -1.552,-9.639C-1.527,-9.607 -1.503,-9.577 -1.479,-9.546C-1.287,-9.304 -1.101,-9.06 -0.92,-8.813C-0.906,-8.794 -0.893,-8.776 -0.879,-8.757C-0.685,-8.49 -0.496,-8.22 -0.314,-7.947C-0.3,-7.926 -0.287,-7.904 -0.272,-7.884C-0.105,-7.632 0.056,-7.378 0.212,-7.122C0.23,-7.092 0.25,-7.062 0.268,-7.031C0.436,-6.754 0.598,-6.476 0.753,-6.195C0.753,-6.194 0.753,-6.193 0.754,-6.193C1.629,-4.609 2.294,-2.987 2.735,-1.416L2.758,-1.337C2.766,-1.307 2.92,-0.67 2.92,-0.67L2.93,-0.626C4.88,8.689 2.544,19.679 -3.317,28.771" clip-rule="nonzero"/>
                    </clipPath>
                    <g clip-path="url(#_clip2)">
                        <g transform="matrix(0.25,0,0,0.25,-85.3229,-192.186)">
                            <g id="path1612" transform="matrix(4,0,0,4,185.124,952.203)">
                                <path d="M0,0L-7.19,-1.498L-14.23,-4.494L-21.496,-9.437L-26.364,-14.155L-30.259,-19.998L-32.955,-26.439L-34.903,-32.806L-34.679,-40.67L-34.379,-46.512L-31.532,-53.327L-26.589,-58.57L-21.271,-61.566L3.37,-62.315L26.364,-61.417L35.053,-56.398L39.921,-47.636L41.119,-36.7L37.674,-23.368L31.981,-14.155L25.241,-7.564L14.081,-1.647L6.217,0.225L0,0Z" style="fill:rgb(255,221,0);fill-rule:nonzero;"/>
                            </g>
                            <g transform="matrix(0.75,0,0,-0.75,35.3738,962.915)">
                                <path d="M101.521,299.335C95.683,296.081 88.551,289.928 82.086,282.251C76.735,275.895 72.026,268.342 69.157,260.244C60.938,237.644 66.174,207.123 80.009,180.182C92.423,156.006 112.197,134.327 139.395,125.052C161.172,117.393 180.325,119.204 198.004,126.406C247.343,146.507 287.142,199.772 338.716,215.402C371.519,225.907 392.473,215.597 404.366,197.713C409.663,189.746 413.41,179.772 414.42,168.53C416.096,149.863 411.157,127.825 401.819,107.748C399.395,101.381 392.239,98.173 385.849,100.589C379.459,103.005 376.24,110.136 378.664,116.503C382.841,130.56 383.748,145.199 382.822,158.17C382.218,166.633 380.73,174.287 377.011,180.059C371.865,188.043 362.23,190.268 347.561,186.153C296.89,171.075 257.62,119.23 209.444,98.967C185.339,88.828 159.344,85.377 129.233,95.043C93.728,106.813 66.463,133.89 50.856,165.633C33.462,201.01 30.656,241.549 42.625,270.479C47.264,281.435 54.295,291.558 62.222,299.899C71.598,309.766 81.921,317.299 90.089,321.227C96.152,324.371 103.635,322.018 106.79,315.977C109.945,309.936 107.584,302.479 101.521,299.335Z" style="fill:rgb(10,10,10);"/>
                            </g>
                            <g transform="matrix(0.75,1.36846e-48,-1.36846e-48,-0.75,35.3738,962.915)">
                                <path d="M97.438,307.154C90.787,303.631 82.456,297.039 74.994,288.552C68.76,281.46 63.144,273.028 59.687,263.897C50.2,239.021 54.475,204.908 69.602,174.988C83.184,148.122 105.604,124.511 135.762,114.323C160.499,105.894 182.116,108.355 202.096,116.591C251.021,136.76 290.615,189.539 341.865,204.987C367.203,212.738 383.471,207.048 392.8,195.049C396.663,190.081 399.394,183.941 400.917,176.988C401.789,173.004 402.26,168.751 402.374,164.323C402.737,150.12 399.448,134.057 393.565,119.045C392.895,117.218 390.861,116.276 389.027,116.944C387.193,117.612 386.248,119.637 386.919,121.465C391.773,135.668 394.15,150.726 393.327,163.928C393.087,167.783 392.548,171.468 391.743,174.931C390.459,180.455 388.447,185.395 385.397,189.374C377.984,199.047 364.791,202.573 344.412,196.567C293.417,181.31 253.942,128.983 205.352,108.782C183.54,99.714 159.978,96.775 132.866,105.771C100.333,116.66 75.762,141.803 61.263,170.827C45.112,203.158 41.536,240.138 52.095,266.826C56.059,276.774 62.341,285.94 69.314,293.598C77.61,302.71 86.854,309.695 94.172,313.409C95.904,314.307 98.042,313.635 98.944,311.909C99.845,310.183 99.17,308.052 97.438,307.154Z" style="fill:white;"/>
                            </g>
                            <g id="path1616" transform="matrix(4,0,0,4,182.128,758.664)">
                                <path d="M0,0L5.992,0L15.204,-2.021L22.919,-5.018L26.064,-7.938L26.964,-11.159L26.215,-16.028L23.968,-21.945L18.575,-25.54L9.512,-27.637L-0.3,-27.187L-9.812,-25.689L-16.553,-21.72L-19.249,-15.279L-20.073,-10.036L-18.725,-7.115L-11.235,-2.621L-5.318,-0.898L0,0Z" style="fill:rgb(255,218,196);fill-rule:nonzero;"/>
                            </g>
                            <g id="path1620" transform="matrix(4,3.28429e-47,3.28429e-47,4,161.155,734.996)">
                                <path d="M0,0L-0.674,-1.572L-0.711,-3.146L-0.3,-4.644L0.637,-5.43L1.723,-4.942L2.396,-3.932L2.322,-1.723L2.022,-0.262L1.461,0.524L0.375,0.3L0,0Z" style="fill:white;fill-rule:nonzero;"/>
                            </g>
                            <g id="path1624" transform="matrix(4,3.28429e-47,3.28429e-47,4,226.616,734.848)">
                                <path d="M0,0L-0.449,-1.123L-0.486,-2.396L-0.337,-3.67L0.225,-4.831L1.723,-4.868L2.696,-3.782L2.472,-1.872L2.172,-0.262L1.461,0.337L0.562,0.562L0,0Z" style="fill:white;fill-rule:nonzero;"/>
                            </g>
                            <g id="path1640" transform="matrix(4,3.28429e-47,3.28429e-47,4,341.292,768.742)">
                                <path d="M0,0C-0.014,-0.057 -0.126,-0.521 -0.134,-0.552C-0.141,-0.575 -0.148,-0.605 -0.148,-0.605C-0.47,-1.748 -0.941,-2.938 -1.552,-4.124L-1.553,-4.123C-3.59,-8.074 -7.182,-11.953 -11.955,-13.7C-11.956,-13.701 -11.957,-13.701 -11.957,-13.702C-11.951,-12.167 -12.069,-11.157 -12.073,-11.123L-12.101,-10.833L-12.276,-10.59C-16.64,-4.973 -25.549,-1.354 -36.174,-1.327C-46.926,-1.354 -56.237,-4.897 -60.444,-10.598L-60.62,-10.84L-60.646,-11.13C-60.649,-11.163 -60.771,-12.052 -60.794,-13.428C-61.676,-13.075 -62.524,-12.655 -63.333,-12.174C-63.336,-12.172 -63.339,-12.171 -63.341,-12.169C-63.879,-11.848 -64.399,-11.5 -64.901,-11.125L-64.901,-11.124C-65.653,-10.563 -66.361,-9.942 -67.021,-9.271L-67.032,-9.259C-67.469,-8.813 -67.884,-8.343 -68.276,-7.853C-68.278,-7.85 -68.281,-7.846 -68.283,-7.843C-68.872,-7.104 -69.408,-6.317 -69.886,-5.487C-69.891,-5.479 -69.896,-5.471 -69.899,-5.463C-70.214,-4.915 -70.504,-4.348 -70.767,-3.764C-70.77,-3.755 -70.774,-3.746 -70.777,-3.737C-70.909,-3.443 -71.034,-3.146 -71.151,-2.844C-71.433,-2.122 -71.676,-1.377 -71.874,-0.61C-71.874,-0.607 -71.968,-0.186 -71.968,-0.186L-71.986,-0.052C-72.402,1.887 -72.605,3.93 -72.605,6.03C-72.605,13.091 -70.313,20.787 -66.131,27.251C-65.981,27.478 -65.899,27.602 -65.841,27.695L-65.851,27.676C-58.903,38.069 -48.331,43.987 -36.082,44.34L-35.75,44.34C-23.577,43.99 -13.049,38.039 -6.104,27.582C-6.104,27.581 -5.83,27.16 -5.83,27.16L-5.835,27.147C-1.645,20.646 0.612,13.134 0.612,6.114C0.612,4.02 0.411,1.968 0,0M-21.29,-26.304C-25.921,-28.115 -30.743,-28.509 -33.969,-28.525L-35.174,-28.527C-35.174,-28.547 -36.225,-28.54 -36.23,-28.54C-36.255,-28.54 -37.303,-28.547 -37.303,-28.547C-37.308,-28.527 -38.518,-28.525 -38.518,-28.525C-41.739,-28.509 -46.562,-28.115 -51.191,-26.304C-58.186,-23.576 -58.482,-15.297 -58.482,-12.401C-58.482,-11.988 -58.474,-11.891 -58.461,-11.72C-54.488,-7.119 -46.145,-4.302 -36.298,-4.277C-26.335,-4.302 -18.187,-7.568 -14.209,-11.78C-14.202,-11.951 -14.192,-12.049 -14.192,-12.462C-14.192,-15.358 -14.29,-23.576 -21.29,-26.304M-3.317,28.771L-3.318,28.772L-3.315,28.788L-3.598,29.225C-11.108,40.533 -22.497,46.96 -35.676,47.335L-35.697,47.336L-36.135,47.336L-36.156,47.335C-49.407,46.957 -60.837,40.566 -68.341,29.341C-68.358,29.315 -68.639,28.89 -68.639,28.89C-74.489,19.85 -76.892,8.522 -74.916,-0.681L-74.913,-0.669C-74.883,-0.877 -74.839,-1.093 -74.781,-1.335C-74.25,-3.387 -73.454,-5.306 -72.436,-7.059C-72.435,-7.062 -72.434,-7.063 -72.432,-7.066C-72.026,-7.765 -71.585,-8.437 -71.11,-9.079C-71.109,-9.08 -71.108,-9.082 -71.107,-9.084C-70.873,-9.4 -70.63,-9.711 -70.381,-10.013C-70.372,-10.023 -70.362,-10.034 -70.354,-10.045C-69.854,-10.647 -69.325,-11.22 -68.767,-11.761C-68.757,-11.77 -68.748,-11.779 -68.738,-11.789C-68.465,-12.053 -68.185,-12.309 -67.898,-12.558C-67.877,-12.575 -67.856,-12.593 -67.836,-12.611C-67.259,-13.108 -66.655,-13.573 -66.028,-14.006C-66.008,-14.02 -65.989,-14.033 -65.969,-14.047C-65.663,-14.256 -65.352,-14.456 -65.034,-14.649C-65.001,-14.669 -64.969,-14.688 -64.936,-14.709C-64.291,-15.096 -63.624,-15.45 -62.938,-15.768C-62.909,-15.78 -62.882,-15.794 -62.853,-15.808C-62.519,-15.96 -62.18,-16.104 -61.836,-16.239C-61.793,-16.257 -61.75,-16.272 -61.707,-16.289C-61.356,-16.426 -61.002,-16.554 -60.643,-16.671C-60.151,-21.11 -58.26,-26.954 -51.968,-29.201C-46.978,-30.983 -41.934,-31.548 -38.525,-31.562C-38.518,-31.562 -37.327,-31.567 -37.327,-31.567C-37.303,-31.587 -36.23,-31.582 -36.23,-31.582L-35.174,-31.587C-35.152,-31.567 -33.962,-31.562 -33.962,-31.562C-30.55,-31.548 -25.523,-30.929 -20.514,-29.201C-14.586,-27.156 -12.697,-21.395 -12.155,-16.92C-11.808,-16.819 -11.466,-16.709 -11.129,-16.591C-11.076,-16.572 -11.025,-16.554 -10.974,-16.535C-10.668,-16.425 -10.366,-16.309 -10.069,-16.186C-10.043,-16.174 -10.015,-16.163 -9.988,-16.151C-9.664,-16.015 -9.345,-15.869 -9.031,-15.717C-8.993,-15.698 -8.956,-15.679 -8.918,-15.66C-8.636,-15.521 -8.358,-15.375 -8.085,-15.223C-8.047,-15.202 -8.009,-15.182 -7.971,-15.16C-7.668,-14.99 -7.37,-14.813 -7.079,-14.629C-7.062,-14.618 -7.045,-14.606 -7.027,-14.596C-6.756,-14.423 -6.49,-14.243 -6.229,-14.06C-6.187,-14.031 -6.147,-14.003 -6.106,-13.975C-5.554,-13.58 -5.023,-13.162 -4.515,-12.723L-4.4,-12.623C-3.896,-12.181 -3.413,-11.719 -2.954,-11.239C-2.921,-11.205 -2.889,-11.171 -2.856,-11.137C-2.397,-10.652 -1.963,-10.152 -1.552,-9.639C-1.527,-9.607 -1.503,-9.577 -1.479,-9.546C-1.287,-9.304 -1.101,-9.06 -0.92,-8.813C-0.906,-8.794 -0.893,-8.776 -0.879,-8.757C-0.685,-8.49 -0.496,-8.22 -0.314,-7.947C-0.3,-7.926 -0.287,-7.904 -0.272,-7.884C-0.105,-7.632 0.056,-7.378 0.212,-7.122C0.23,-7.092 0.25,-7.062 0.268,-7.031C0.436,-6.754 0.598,-6.476 0.753,-6.195C0.753,-6.194 0.753,-6.193 0.754,-6.193C1.629,-4.609 2.294,-2.987 2.735,-1.416L2.758,-1.337C2.766,-1.307 2.92,-0.67 2.92,-0.67L2.93,-0.626C4.88,8.689 2.544,19.679 -3.317,28.771M-26.888,-12.11C-27.071,-12.584 -27.354,-12.759 -27.667,-12.76C-27.981,-12.761 -28.259,-12.585 -28.445,-12.107C-28.591,-11.737 -28.683,-11.136 -28.685,-10.618C-28.687,-10.088 -28.609,-9.497 -28.461,-9.122C-28.276,-8.66 -27.989,-8.471 -27.682,-8.47C-27.37,-8.469 -27.074,-8.699 -26.888,-9.167C-26.739,-9.539 -26.665,-10.087 -26.664,-10.612C-26.662,-11.133 -26.743,-11.738 -26.888,-12.11M-27.624,-7.594C-29.611,-7.41 -29.608,-10.586 -29.608,-14.25C-29.608,-17.913 -29.313,-20.9 -27.569,-20.882C-25.74,-20.861 -25.505,-17.771 -25.505,-14.11C-25.505,-10.447 -25.897,-7.752 -27.624,-7.594M-43.396,-12.107C-43.582,-12.585 -43.859,-12.761 -44.174,-12.76C-44.486,-12.759 -44.77,-12.584 -44.953,-12.11C-45.098,-11.738 -45.179,-11.133 -45.177,-10.612C-45.176,-10.087 -45.102,-9.539 -44.953,-9.167C-44.767,-8.699 -44.471,-8.469 -44.159,-8.47C-43.852,-8.471 -43.564,-8.66 -43.38,-9.122C-43.23,-9.497 -43.154,-10.088 -43.156,-10.618C-43.158,-11.136 -43.25,-11.737 -43.396,-12.107M-44.217,-7.594C-45.943,-7.752 -46.336,-10.447 -46.336,-14.11C-46.336,-17.771 -46.101,-20.861 -44.271,-20.882C-42.527,-20.9 -42.232,-17.913 -42.232,-14.25C-42.232,-10.586 -42.229,-7.41 -44.217,-7.594" style="fill:rgb(10,10,10);fill-rule:nonzero;"/>
                            </g>
                        </g>
                    </g>
                </g>
            </g>
        </g>
    </g>
</svg>
