<?xml version="1.0" standalone="no"?>
<!DOCTYPE svg PUBLIC "-//W3C//DTD SVG 20010904//EN"
 "http://www.w3.org/TR/2001/REC-SVG-20010904/DTD/svg10.dtd">
<svg version="1.0" xmlns="http://www.w3.org/2000/svg"
 width="700.000000pt" height="700.000000pt" viewBox="0 0 700.000000 700.000000"
 preserveAspectRatio="xMidYMid meet">
<metadata>
Created by potrace 1.11, written by Peter Selinger 2001-2013
</metadata>
<g transform="translate(0.000000,700.000000) scale(0.100000,-0.100000)"
fill="#000000" stroke="none">
<path d="M3238 6989 c-1051 -75 -1967 -624 -2586 -1550 -321 -481 -553 -1119
-629 -1733 -20 -163 -23 -560 -5 -696 66 -498 238 -878 541 -1193 212 -221
494 -411 710 -480 54 -16 73 -27 75 -42 18 -100 71 -290 105 -377 111 -282
309 -510 553 -633 201 -103 668 -215 1083 -262 205 -23 625 -23 830 0 409 46
880 159 1079 259 186 93 353 255 469 452 78 134 158 367 193 561 2 15 21 26
75 42 216 69 493 255 704 474 305 319 470 671 541 1164 25 167 25 537 0 730
-84 666 -335 1331 -691 1830 -187 261 -456 548 -690 735 -670 534 -1481 782
-2357 719z m597 -260 c730 -74 1381 -394 1904 -934 116 -120 125 -133 181
-248 104 -218 194 -495 226 -702 21 -137 21 -366 0 -478 -42 -219 -112 -316
-255 -353 -79 -20 -175 -8 -315 37 -305 100 -551 254 -1121 705 -452 357 -660
496 -945 633 -381 183 -753 239 -1127 171 -579 -105 -1077 -457 -1420 -1004
-364 -581 -479 -1310 -291 -1845 60 -170 180 -379 312 -541 79 -97 218 -234
290 -285 51 -36 56 -43 51 -70 -2 -16 -5 -74 -6 -127 -1 -66 -6 -98 -13 -98
-17 0 -141 66 -221 118 -401 259 -668 633 -773 1087 -74 315 -74 740 -1 1125
216 1137 908 2080 1860 2534 360 172 745 266 1179 290 96 5 370 -3 485 -15z
m-968 -1320 c213 -23 455 -105 688 -231 228 -124 381 -229 729 -502 663 -519
903 -671 1230 -780 138 -47 219 -59 337 -54 88 4 107 9 171 41 157 78 250 231
294 487 24 137 14 431 -18 588 -13 61 -22 112 -20 112 6 0 151 -303 186 -391
30 -75 36 -101 36 -165 0 -161 -40 -337 -112 -483 -43 -89 -62 -116 -132 -185
-129 -129 -247 -176 -440 -176 -187 0 -372 52 -621 175 -253 125 -442 253
-933 634 -434 337 -627 469 -841 576 -284 143 -551 206 -806 191 -815 -49
-1498 -734 -1671 -1676 -27 -147 -25 -462 4 -593 52 -236 180 -472 365 -673
40 -42 93 -94 119 -115 l48 -37 -36 -44 c-20 -24 -41 -53 -47 -66 -6 -12 -16
-22 -24 -22 -25 0 -256 242 -325 340 -226 319 -309 597 -295 985 11 319 83
593 237 910 254 524 683 916 1182 1079 96 32 268 70 358 79 78 8 246 6 337 -4z
m68 -354 c192 -40 389 -125 614 -265 126 -78 309 -212 811 -596 352 -269 549
-396 795 -515 520 -251 929 -239 1211 36 109 107 177 220 234 390 l27 80 12
-40 c43 -152 87 -433 101 -653 35 -547 -99 -1035 -379 -1387 -58 -72 -215
-226 -296 -290 -127 -99 -335 -225 -372 -225 -10 0 -13 25 -13 100 0 320 -120
492 -509 727 -361 219 -762 351 -1241 410 -203 25 -657 25 -860 0 -405 -50
-766 -156 -1068 -313 -130 -68 -292 -167 -354 -216 -43 -34 -47 -33 -129 37
-172 147 -336 407 -396 632 -25 91 -27 113 -27 308 0 190 2 222 26 335 124
581 484 1082 943 1313 147 74 332 132 485 151 72 9 308 -2 385 -19z m795
-2465 c436 -31 795 -123 1125 -290 312 -157 509 -311 551 -431 28 -80 26 -387
-4 -550 -58 -318 -194 -578 -374 -717 -124 -95 -262 -152 -537 -221 -665 -167
-1317 -167 -1980 -1 -406 102 -566 197 -720 423 -143 211 -230 565 -218 887 6
180 18 212 116 310 97 97 236 190 454 300 446 225 1017 330 1587 290z"/>
<path d="M2744 2201 c-51 -23 -78 -65 -106 -167 -20 -73 -22 -101 -22 -389 -1
-263 2 -320 16 -378 35 -136 85 -193 162 -183 76 9 121 84 147 241 20 122 17
627 -4 723 -20 90 -49 140 -93 158 -43 18 -50 17 -100 -5z m94 -84 c45 -48 54
-213 16 -293 -33 -69 -100 -64 -130 10 -20 49 -23 195 -5 241 27 67 78 85 119
42z"/>
<path d="M4150 2203 c-40 -21 -74 -80 -90 -158 -17 -82 -24 -466 -11 -615 16
-187 35 -254 89 -312 51 -55 139 -42 181 25 47 76 63 174 68 427 8 323 -12
486 -69 570 -48 70 -109 93 -168 63z m89 -73 c32 -16 51 -83 50 -173 0 -96
-14 -143 -50 -170 -24 -17 -30 -18 -55 -6 -56 27 -82 176 -49 287 20 66 56 88
104 62z"/>
</g>
</svg>
