<?xml version="1.0" encoding="UTF-8" standalone="no"?><!DOCTYPE svg PUBLIC "-//W3C//DTD SVG 1.1//EN" "http://www.w3.org/Graphics/SVG/1.1/DTD/svg11.dtd"><svg width="100%" height="100%" viewBox="0 0 36 36" version="1.1" xmlns="http://www.w3.org/2000/svg" xmlns:xlink="http://www.w3.org/1999/xlink" xml:space="preserve" xmlns:serif="http://www.serif.com/" style="fill-rule:evenodd;clip-rule:evenodd;stroke-linejoin:round;stroke-miterlimit:2;"><path id="path1612" d="M16.733,1.116l-3.198,0.669l-3.131,1.337l-3.231,2.206l-2.165,2.106l-1.732,2.608l-1.199,2.874l-0.867,2.842l0.1,3.51l0.133,2.607l1.267,3.042l2.198,2.34l2.365,1.337l10.959,0.334l10.226,-0.401l3.865,-2.24l2.165,-3.91l0.533,-4.881l-1.533,-5.95l-2.531,-4.112l-2.998,-2.942l-4.963,-2.641l-3.498,-0.835l-2.765,0.1Z" style="fill:#ffdf00;fill-rule:nonzero;"/><path id="path1616" d="M16.561,21.802l2.658,0l4.086,0.957l3.422,1.418l1.395,1.382l0.4,1.525l-0.333,2.305l-0.996,2.8l-2.393,1.702l-4.02,0.993l-4.352,-0.213l-4.22,-0.709l-2.99,-1.879l-1.196,-3.049l-0.366,-2.482l0.598,-1.382l3.323,-2.127l2.625,-0.816l2.359,-0.425Z" style="fill:#ffdac4;fill-rule:nonzero;"/><path d="M7.39,28.998c-0.032,-0.021 -0.085,-0.052 -0.132,-0.075c-0.594,-0.294 -1.194,-0.522 -1.751,-0.876c-1.108,-0.694 -2.083,-1.592 -2.854,-2.643c-3.568,-4.859 -2.029,-11.985 0.98,-16.709c0.009,-0.019 0.02,-0.038 0.031,-0.056c0,0 0.119,-0.185 0.123,-0.191c3.312,-5.008 8.336,-7.851 14.145,-8.015c0.006,0 0.011,0 0.017,0l0.271,0l0.023,0c5.809,0.164 10.833,3.007 14.145,8.015c0.001,0.002 0.003,0.004 0.004,0.006l0.119,0.185c0.011,0.018 0.022,0.037 0.031,0.056c3.009,4.716 4.549,11.842 0.994,16.708c-0.772,1.052 -1.746,1.95 -2.854,2.644c-0.565,0.354 -1.164,0.581 -1.745,0.872c-0.1,0.051 -0.147,0.057 -0.158,0.114c-0.019,0.111 -0.033,0.209 -0.052,0.306c-0.008,0.056 -0.017,0.106 -0.032,0.169c-0.446,2.129 -1.656,4.083 -3.807,4.827c-2.116,0.734 -4.449,1.116 -6.799,1.137c-2.333,-0.021 -4.673,-0.403 -6.787,-1.137c-2.118,-0.732 -3.323,-2.629 -3.787,-4.726c-0.016,-0.037 -0.029,-0.077 -0.037,-0.119c-0.03,-0.147 -0.06,-0.313 -0.088,-0.492Zm20.13,0.381c-0.001,-0.04 0.003,-0.08 0.011,-0.121c0.116,-0.576 0.245,-1.478 0.215,-2.279c-0.016,-0.445 -0.068,-0.859 -0.242,-1.124c-0.475,-0.722 -1.482,-1.306 -2.231,-1.722c-2.169,-1.222 -4.722,-1.685 -7.187,-1.704c-2.475,0.019 -5.028,0.482 -7.199,1.705c-0.701,0.39 -1.633,0.929 -2.137,1.591c-0.009,0.013 -0.018,0.025 -0.027,0.037c-0.023,0.03 -0.044,0.061 -0.065,0.092c-0.174,0.266 -0.226,0.68 -0.242,1.125c-0.021,0.558 0.035,1.165 0.11,1.676c0.016,0.052 0.029,0.107 0.04,0.167c0,0.002 0.001,0.005 0.001,0.007c0.019,0.108 0.032,0.203 0.051,0.298c0.002,0.01 0.004,0.021 0.005,0.032c0.004,0.026 0.007,0.049 0.015,0.079l0.005,0.023c0.362,1.737 1.294,3.358 3.043,3.963c1.999,0.694 4.209,1.053 6.403,1.072c2.211,-0.019 4.415,-0.378 6.414,-1.072c1.708,-0.591 2.638,-2.159 3.017,-3.845Zm5.705,-16.754c-0.013,0.763 -0.118,1.492 -0.329,2.13c-0.315,0.953 -0.864,1.71 -1.655,2.139c-0.777,0.422 -1.806,0.539 -3.131,0.14c-2.988,-0.902 -5.505,-3.342 -8.146,-5.278c-2.433,-1.783 -4.981,-3.127 -8.236,-2.03c-3.007,1.013 -5.042,3.726 -5.89,6.525c-0.559,1.845 -0.606,3.733 -0.04,5.198c0.52,1.334 1.492,2.563 2.357,3.183c0.617,-0.616 1.471,-1.142 2.157,-1.524c2.342,-1.318 5.093,-1.834 7.774,-1.855c2.671,0.021 5.422,0.537 7.761,1.854c0.894,0.497 2.07,1.236 2.64,2.102c0.27,0.412 0.409,1.037 0.434,1.726c0.009,0.227 0.006,0.461 -0.005,0.695c0.386,-0.176 0.772,-0.348 1.141,-0.579c0.982,-0.616 1.847,-1.411 2.53,-2.342c2.52,-3.45 2.189,-8.13 0.638,-12.084Zm-1.744,-3.414l-0.074,-0.115c-3.089,-4.672 -7.771,-7.332 -13.19,-7.487l-0.259,0c-5.419,0.155 -10.101,2.815 -13.186,7.481l-0.088,0.138c-0.009,0.019 -0.019,0.036 -0.03,0.053c-2.791,4.351 -4.351,10.936 -1.053,15.427c0.684,0.932 1.548,1.727 2.533,2.344c0.357,0.227 0.733,0.396 1.111,0.567c-0.01,-0.23 -0.013,-0.461 -0.004,-0.684c0.018,-0.5 0.097,-0.967 0.242,-1.343c-1.021,-0.744 -2.174,-2.159 -2.781,-3.717c-0.65,-1.682 -0.63,-3.848 0.011,-5.964c0.952,-3.143 3.265,-6.162 6.639,-7.299c3.67,-1.237 6.565,0.186 9.307,2.196c2.534,1.857 4.925,4.235 7.79,5.1c0.944,0.285 1.679,0.253 2.232,-0.047c0.538,-0.292 0.884,-0.827 1.099,-1.476c0.489,-1.477 0.295,-3.519 -0.299,-5.174Z" style="fill:#0a0a0a;"/><path id="path1620" d="M14.193,24.913l-0.289,0.675l-0.015,0.675l0.175,0.643l0.401,0.337l0.464,-0.209l0.288,-0.433l-0.032,-0.948l-0.128,-0.627l-0.24,-0.337l-0.464,0.096l-0.16,0.128Z" style="fill:#fff;fill-rule:nonzero;"/><path id="path1624" d="M21.19,24.929l-0.192,0.482l-0.016,0.546l0.064,0.547l0.24,0.498l0.64,0.016l0.416,-0.466l-0.095,-0.819l-0.129,-0.691l-0.304,-0.257l-0.384,-0.097l-0.24,0.241Z" style="fill:#fff;fill-rule:nonzero;"/><path id="path1640" d="M21.951,26.332c-0.078,0.203 -0.199,0.278 -0.333,0.278c-0.134,0.001 -0.253,-0.075 -0.333,-0.28c-0.062,-0.159 -0.101,-0.416 -0.102,-0.639c-0.001,-0.227 0.032,-0.481 0.095,-0.642c0.08,-0.198 0.202,-0.279 0.334,-0.279c0.133,-0.001 0.259,0.098 0.339,0.299c0.064,0.159 0.095,0.395 0.096,0.62c0.001,0.223 -0.034,0.483 -0.096,0.643m-0.315,-1.938c-0.849,-0.079 -0.848,1.284 -0.848,2.856c0,1.571 0.126,2.853 0.872,2.845c0.782,-0.009 0.882,-1.335 0.882,-2.905c0,-1.572 -0.167,-2.728 -0.906,-2.796m-6.743,1.936c-0.08,0.205 -0.198,0.281 -0.333,0.28c-0.133,0 -0.255,-0.075 -0.333,-0.278c-0.062,-0.16 -0.097,-0.42 -0.096,-0.643c0.001,-0.225 0.032,-0.461 0.096,-0.62c0.08,-0.201 0.206,-0.3 0.34,-0.299c0.131,0 0.254,0.081 0.333,0.279c0.064,0.161 0.096,0.415 0.095,0.642c0,0.223 -0.04,0.48 -0.102,0.639m-0.351,-1.936c-0.738,0.068 -0.906,1.224 -0.906,2.796c0,1.57 0.1,2.896 0.883,2.905c0.745,0.008 0.872,-1.274 0.872,-2.845c0,-1.572 0.001,-2.935 -0.849,-2.856" style="fill:#0a0a0a;fill-rule:nonzero;"/></svg>